<svg width="53" height="52" viewBox="0 0 53 52" fill="none" xmlns="http://www.w3.org/2000/svg">
<path d="M28.03 12.5216V12.5098C28.0266 12.1064 27.8653 11.7202 27.5813 11.4352L27.5812 11.4351C27.2942 11.1469 26.9054 10.985 26.5002 10.984C26.0944 10.9838 25.7052 11.145 25.4177 11.4331L25.4176 11.4333C25.1301 11.7212 24.9679 12.1125 24.9677 12.5207L28.03 12.5216ZM28.03 12.5216C28.03 12.9298 27.8682 13.3212 27.5809 13.6095M28.03 12.5216L27.5809 13.6095M27.5809 13.6095C27.2938 13.8975 26.9045 14.0591 26.4987 14.0592L27.5809 13.6095ZM4.00447 28.3716H4.00457H5.96616V47.9854L5.96616 47.9858C5.96698 48.8907 6.32575 49.7584 6.96377 50.3985C7.60185 51.0387 8.46727 51.3992 9.37039 51.4H9.37075H43.6291H43.6295C44.5326 51.3992 45.398 51.0387 46.0361 50.3985C46.6742 49.7584 47.0329 48.8907 47.0337 47.9858V47.9854V28.3716H48.9954H48.996C49.898 28.3704 50.763 28.0108 51.4011 27.3714L51.4012 27.3713C52.0388 26.732 52.398 25.8653 52.4 24.9613V24.9604V17.4721V17.4717C52.3992 16.5668 52.0404 15.6991 51.4024 15.059C50.7642 14.4187 49.8988 14.0587 48.996 14.0575H48.9954H42.5324C43.4039 13.0607 44.0601 11.8891 44.4543 10.6163C45.1986 8.37579 44.8704 5.91578 43.5647 3.95004L43.5648 3.94998L43.5592 3.94193C42.0529 1.79075 39.5743 0.537325 36.954 0.602416C34.1873 0.557269 31.5633 1.83082 29.8815 4.03463L29.8815 4.03458L29.8765 4.04141C29.03 5.20061 28.2999 6.44069 27.6966 7.7432C26.9116 7.52805 26.0833 7.52804 25.2983 7.74318C24.6957 6.44148 23.9662 5.20269 23.1197 4.04485L23.1198 4.0448L23.115 4.03857C21.4342 1.83155 18.8086 0.556099 16.0402 0.602416C13.429 0.539551 10.9595 1.79054 9.45978 3.93517L9.45972 3.93512L9.45546 3.94146C8.13639 5.90655 7.79919 8.37377 8.5423 10.6221C8.94338 11.8933 9.60396 13.0627 10.4782 14.0575L4.0046 14.0575L4.00405 14.0575C3.10123 14.0587 2.23578 14.4187 1.59762 15.059L1.86747 15.3279L1.59762 15.059C0.959591 15.6991 0.600818 16.5668 0.6 17.4717V17.4721L0.599999 24.9604L0.600001 24.9613C0.602049 25.8653 0.961181 26.732 1.5988 27.3713L1.59888 27.3714C2.237 28.0108 3.10194 28.3704 4.00402 28.3716L4.00447 28.0462V28.3716ZM9.35967 47.9879C9.35955 47.9874 9.35946 47.9869 9.35938 47.9863V47.9854V28.3716H24.8097V47.998L9.37188 47.998C9.37177 47.998 9.37167 47.998 9.37156 47.998C9.37073 47.998 9.37006 47.9979 9.36949 47.9978C9.36866 47.9977 9.36807 47.9975 9.36757 47.9972C9.36644 47.9968 9.36495 47.9958 9.36345 47.9943C9.36195 47.9928 9.3609 47.9912 9.36028 47.9897C9.36006 47.9892 9.35984 47.9886 9.35967 47.9879ZM43.6412 47.859L43.6408 47.9842C43.6408 47.9856 43.6406 47.9867 43.6404 47.9877C43.6402 47.9886 43.64 47.9893 43.6397 47.9899C43.6391 47.9913 43.6381 47.993 43.6366 47.9945C43.6351 47.996 43.6336 47.9969 43.6325 47.9974C43.6316 47.9977 43.6305 47.9981 43.6285 47.9981C43.6284 47.9981 43.6283 47.9981 43.6281 47.9981L28.1968 47.9981V28.3718H43.647L43.6412 47.859ZM48.997 17.4595C48.9982 17.4595 48.9994 17.4597 49.0005 17.4601V17.4722L49.0001 24.9605C49.0001 24.9688 48.9938 24.9733 48.9888 24.9733H28.1966V17.4595H30.5334H30.905H31.4618L48.9957 17.4595L48.997 17.4595ZM32.5954 6.0763C33.6385 4.73944 35.2486 3.97457 36.9404 4.01286L36.952 4.01312L36.9635 4.01272C38.46 3.96019 39.8834 4.66116 40.7576 5.8814C41.4709 6.98347 41.6391 8.35436 41.2131 9.59766L41.2099 9.60701L41.2072 9.61651C40.7328 11.262 39.5375 12.6008 37.961 13.2546C35.8746 13.8906 33.6952 14.1653 31.5168 14.0665L31.5077 14.0661H31.4987H31.1622C31.3841 13.407 31.4618 12.7052 31.387 12.0088C31.2986 11.1854 31.0001 10.4 30.5223 9.72759C31.0812 8.43992 31.7761 7.2155 32.5954 6.0763ZM21.1893 14.0541C19.1041 14.1303 17.021 13.8565 15.0255 13.2451C13.4529 12.5898 12.2601 11.2543 11.7839 9.61236L11.7817 9.60475L11.7792 9.59723C11.362 8.34612 11.5349 6.97264 12.2493 5.86564C13.1192 4.65058 14.5365 3.95227 16.026 4.00408L16.0374 4.00448L16.0489 4.00422C17.7473 3.96611 19.3637 4.7377 20.406 6.08458C21.2213 7.21753 21.9124 8.43499 22.4677 9.71579C21.9905 10.3885 21.6926 11.174 21.6049 11.9976C21.5307 12.6938 21.6088 13.3952 21.8307 14.0538H21.2039H21.1966L21.1893 14.0541ZM3.99428 17.472L3.99427 17.4693C3.99425 17.467 3.99525 17.4642 3.99733 17.4622L3.99734 17.4622C3.99925 17.4602 4.00163 17.4593 4.00429 17.4593H4.00562H21.5358H22.0908H22.4623H24.8042V24.9698H4.00551C4.00355 24.9698 4.00257 24.9694 4.00184 24.9691C4.00085 24.9687 3.99947 24.9679 3.99805 24.9665C3.99663 24.9651 3.99566 24.9635 3.99509 24.9622C3.99467 24.9612 3.99425 24.9599 3.99417 24.9577L3.99428 17.472ZM26.4987 14.0592C26.0929 14.0589 25.7034 13.897 25.4162 13.6089C25.129 13.3205 24.9677 12.9293 24.9677 12.5208L26.4987 14.0592Z" fill="#154580" stroke="#154580" stroke-width="0.8"/>
</svg>
